<svg width="39" height="40" viewBox="0 0 39 40" fill="none" xmlns="http://www.w3.org/2000/svg">
<g id="Iconset/home" filter="url(#filter0_d_11_2005)">
<path id="Vector" d="M11.5 18.9075V27C11.5 28.1046 12.3954 29 13.5 29H25.5C26.6046 29 27.5 28.1046 27.5 27V18.9075C27.5 18.3308 27.251 17.7822 26.817 17.4024L20.817 12.1524C20.063 11.4926 18.937 11.4926 18.183 12.1524L12.183 17.4024C11.749 17.7822 11.5 18.3308 11.5 18.9075Z" stroke="#E42F45" stroke-width="2"/>
<path id="Vector_2" d="M16.5 29V23C16.5 21.8954 17.3954 21 18.5 21H20.5C21.6046 21 22.5 21.8954 22.5 23V29" stroke="#E42F45" stroke-width="2"/>
</g>
<defs>
<filter id="filter0_d_11_2005" x="-2.5" y="-2" width="44" height="44" filterUnits="userSpaceOnUse" color-interpolation-filters="sRGB">
<feFlood flood-opacity="0" result="BackgroundImageFix"/>
<feColorMatrix in="SourceAlpha" type="matrix" values="0 0 0 0 0 0 0 0 0 0 0 0 0 0 0 0 0 0 127 0" result="hardAlpha"/>
<feOffset/>
<feGaussianBlur stdDeviation="5"/>
<feComposite in2="hardAlpha" operator="out"/>
<feColorMatrix type="matrix" values="0 0 0 0 0 0 0 0 0 0 0 0 0 0 0 0 0 0 1 0"/>
<feBlend mode="normal" in2="BackgroundImageFix" result="effect1_dropShadow_11_2005"/>
<feBlend mode="normal" in="SourceGraphic" in2="effect1_dropShadow_11_2005" result="shape"/>
</filter>
</defs>
</svg>
